<?xml version="1.0" standalone="no"?>
<!DOCTYPE svg PUBLIC "-//W3C//DTD SVG 20010904//EN"
 "http://www.w3.org/TR/2001/REC-SVG-20010904/DTD/svg10.dtd">
<svg version="1.0" xmlns="http://www.w3.org/2000/svg"
 width="400.000000pt" height="400.000000pt" viewBox="0 0 400.000000 400.000000"
 preserveAspectRatio="xMidYMid meet">

<g transform="translate(0.000000,400.000000) scale(0.100000,-0.100000)"
fill="#000000" stroke="none">
<path d="M2444 3608 c-3 -5 0 -16 8 -25 7 -10 8 -14 1 -10 -6 4 -57 7 -113 8
-100 1 -103 0 -141 -30 -32 -26 -84 -44 -148 -52 -3 0 3 -4 14 -9 18 -7 17 -8
-10 -15 -54 -14 -174 -64 -194 -82 -11 -9 -18 -20 -15 -25 3 -4 -4 -8 -15 -8
-12 0 -21 -5 -21 -11 0 -13 -51 -55 -62 -51 -5 1 -8 -4 -8 -12 0 -8 -7 -17
-16 -20 -9 -4 -14 -9 -11 -13 10 -10 -13 -44 -25 -37 -7 4 -8 3 -4 -5 4 -6 1
-14 -7 -17 -8 -3 -23 -22 -33 -42 -11 -20 -27 -46 -38 -57 -93 -102 -110 -189
-91 -470 9 -134 24 -182 53 -164 14 9 26 8 50 -5 46 -24 66 -58 58 -101 -4
-19 -10 -34 -14 -32 -4 1 -8 -2 -10 -8 -1 -5 4 -10 11 -10 17 0 45 -151 36
-194 -4 -19 -5 -39 -2 -45 3 -5 12 -49 19 -98 8 -52 20 -96 29 -105 9 -8 14
-22 11 -29 -3 -8 -1 -14 5 -14 6 0 7 -4 4 -10 -17 -27 73 -133 190 -224 107
-84 120 -92 198 -120 36 -13 74 -31 82 -40 19 -19 31 -19 88 -7 23 6 76 18
117 27 106 24 155 52 237 136 51 53 84 98 117 163 49 96 52 105 35 105 -5 0
-7 -5 -4 -10 3 -5 1 -10 -4 -10 -6 0 -11 -9 -11 -20 0 -11 -4 -20 -10 -20 -5
0 -10 -5 -10 -11 0 -11 -53 -91 -77 -117 -7 -7 -13 -17 -13 -21 0 -5 -17 -27
-38 -49 -48 -50 -107 -77 -140 -63 -13 6 -36 11 -52 11 -19 0 -36 10 -54 31
-14 16 -34 31 -44 32 -16 1 -79 -37 -93 -57 -4 -5 -21 -1 -38 7 -31 16 -32 15
-50 -13 -17 -28 -18 -29 -46 -14 -16 8 -36 14 -44 13 -37 -3 -49 3 -55 27 -5
20 -12 25 -27 21 -23 -6 -119 65 -119 88 0 9 -11 20 -24 26 -31 15 -80 101
-65 116 16 16 1 35 -23 31 -22 -3 -45 36 -28 47 6 4 10 11 10 16 0 6 -4 8 -9
4 -5 -3 -12 3 -15 12 -9 34 -29 498 -22 543 3 25 6 55 6 67 0 22 36 50 48 38
4 -3 20 -43 37 -88 23 -63 37 -85 57 -95 45 -21 140 -34 220 -30 48 3 79 1 81
-6 7 -21 83 72 122 148 22 44 40 84 40 90 0 5 13 17 28 26 27 14 29 14 53 -13
24 -28 34 -64 14 -52 -18 11 -11 -8 32 -83 60 -104 117 -131 246 -116 l67 8
-99 7 c-135 9 -171 38 -201 156 -14 53 -14 67 -3 90 23 49 58 58 208 57 113
-1 143 -4 181 -21 38 -17 48 -27 54 -53 4 -19 3 -36 -4 -43 -6 -6 -11 -16 -11
-22 0 -5 5 -3 11 5 15 22 0 -68 -17 -102 -8 -15 -24 -34 -36 -42 -12 -9 -16
-16 -9 -16 16 0 89 77 97 103 3 9 12 17 20 17 8 0 22 13 33 30 10 16 21 27 26
22 4 -4 5 56 2 133 -6 145 -14 181 -61 270 -14 26 -26 53 -26 59 0 14 -49 74
-50 60 0 -5 7 -19 15 -30 8 -10 15 -27 15 -38 0 -14 -10 -8 -38 24 -62 71 -69
47 -17 -58 52 -105 70 -161 80 -249 7 -73 9 -73 -100 -48 -41 10 -118 16 -199
17 -180 1 -175 2 -206 -32 l-29 -31 -16 24 c-13 21 -24 24 -78 25 -34 1 -86 6
-116 12 -69 13 -225 13 -293 0 -96 -19 -138 -32 -138 -44 0 -6 -4 -5 -9 3 -14
22 -31 3 -31 -35 0 -24 -7 -41 -26 -57 -67 -58 -88 -29 -29 40 26 31 35 51 35
77 0 20 5 36 10 36 6 0 10 17 10 38 0 85 73 257 140 329 60 65 110 94 151 87
25 -4 30 -3 19 5 -13 9 -12 13 7 31 12 11 27 20 33 20 6 0 19 6 30 13 17 10
22 9 30 -3 6 -10 10 -11 10 -2 0 6 7 12 16 12 9 0 12 -5 8 -12 -4 -7 1 -6 12
3 10 9 48 20 82 23 35 4 76 12 90 17 39 15 137 12 196 -5 28 -8 67 -18 87 -21
21 -3 48 -14 60 -24 13 -10 45 -20 71 -23 l47 -5 -17 23 c-9 13 -21 24 -25 24
-5 0 -5 5 -2 11 5 7 15 3 30 -11 12 -11 27 -20 32 -18 5 2 28 -17 51 -42 31
-32 42 -39 42 -26 0 10 -9 30 -21 44 -18 23 -19 27 -5 30 13 3 11 9 -11 33
-28 29 -53 38 -53 19 0 -5 -5 -10 -11 -10 -6 0 -9 7 -5 15 4 11 -2 15 -25 15
-29 0 -31 2 -24 28 13 52 12 94 -2 99 -7 3 -13 16 -13 29 0 32 -18 30 -31 -3
-8 -22 -12 -24 -19 -13 -19 30 -11 -20 10 -60 25 -49 25 -54 -1 -32 -42 34
-47 42 -64 96 -12 36 -22 53 -30 49 -8 -2 -19 5 -25 17 -6 12 -14 19 -17 16
-3 -3 2 -17 11 -31 9 -14 12 -25 7 -25 -5 0 -15 14 -23 30 -9 20 -20 30 -35
30 -22 0 -40 16 -30 27 4 3 19 1 36 -5 l30 -11 -17 31 c-10 17 -22 31 -27 31
-6 0 -27 4 -48 7 -20 4 -40 3 -43 -2z m-94 -89 c69 -39 42 -55 -31 -18 -39 19
-77 20 -65 0 3 -5 -5 -4 -19 2 -14 7 -25 16 -25 20 0 5 -4 5 -10 2 -6 -4 -7 1
-3 11 9 23 99 13 153 -17z m135 4 c15 -18 24 -23 25 -14 0 18 29 -17 30 -36 0
-17 -40 -16 -62 1 -28 21 -43 76 -21 76 2 0 15 -12 28 -27z m-535 -143 c-8 -5
-19 -10 -25 -10 -5 0 -3 5 5 10 8 5 20 10 25 10 6 0 3 -5 -5 -10z m860 -106
c0 -2 -12 -4 -27 -4 -21 0 -24 3 -14 9 13 8 41 5 41 -5z m133 -339 c7 -5 12
-20 13 -33 l1 -22 -24 22 c-16 15 -22 30 -19 47 6 37 8 39 13 16 3 -11 10 -24
16 -30z m-712 -272 c43 -17 59 -38 59 -76 0 -26 -30 -120 -36 -114 -2 2 1 18
7 35 6 17 9 37 7 44 -5 13 -12 -9 -37 -100 -10 -34 -19 -46 -44 -57 -80 -32
-254 -25 -307 14 -30 22 -59 101 -60 163 0 39 4 50 30 72 17 14 45 28 63 30
18 3 43 8 57 10 48 9 223 -5 261 -21z m755 -19 c-3 -9 -6 -21 -7 -27 0 -7 -4
-3 -8 8 -9 22 -5 35 11 35 5 0 7 -7 4 -16z m0 -101 c-10 -10 -19 5 -10 18 6
11 8 11 12 0 2 -7 1 -15 -2 -18z"/>
<path d="M1973 2615 c-29 -13 -53 -29 -53 -35 0 -18 31 -11 62 15 29 25 74 37
51 14 -17 -17 -3 -47 25 -52 37 -7 62 9 62 38 0 32 13 32 38 0 22 -28 32 -32
32 -11 0 8 -15 24 -34 35 -46 29 -117 28 -183 -4z"/>
<path d="M2066 2517 c-18 -13 -18 -14 0 -15 31 -1 64 8 64 18 0 15 -43 12 -64
-3z"/>
<path d="M2084 3185 c-15 -11 -16 -14 -3 -15 8 0 24 7 35 15 15 11 16 14 3 15
-8 0 -24 -7 -35 -15z"/>
<path d="M2552 2870 c-12 -5 -27 -21 -32 -35 -12 -33 -12 -38 0 -30 5 3 18 0
29 -7 16 -10 32 -10 79 0 32 7 70 12 85 12 29 0 35 11 14 28 -13 11 -122 43
-142 41 -5 0 -20 -4 -33 -9z"/>
<path d="M2090 2840 c-8 -5 -24 -10 -35 -10 -11 0 -46 -14 -78 -31 -52 -27
-57 -28 -47 -10 17 33 -1 25 -37 -16 -36 -42 -42 -59 -15 -48 68 29 107 38
184 39 49 0 88 4 88 8 0 4 9 5 19 3 25 -5 62 22 59 43 -2 9 -12 20 -23 24 -31
10 -98 9 -115 -2z"/>
<path d="M2588 2633 c-27 -4 -84 -60 -73 -71 3 -3 19 7 35 23 l30 29 0 -26 c0
-41 70 -55 90 -19 14 27 13 32 -6 29 -10 -2 -19 3 -21 10 -3 7 1 10 11 6 9 -3
16 -1 16 6 0 14 38 4 63 -18 9 -8 19 -13 22 -10 3 3 -4 13 -15 23 -21 19 -97
28 -152 18z"/>
<path d="M1572 2419 c2 -7 10 -15 17 -17 8 -3 12 1 9 9 -2 7 -10 15 -17 17 -8
3 -12 -1 -9 -9z"/>
<path d="M2207 2233 c-4 -3 -7 -12 -7 -20 0 -10 5 -11 19 -4 10 6 36 8 57 5
37 -5 38 -4 20 10 -20 16 -77 22 -89 9z"/>
<path d="M2435 2230 c-3 -5 3 -10 15 -10 12 0 18 -4 15 -10 -8 -12 25 -13 44
-1 7 5 10 14 7 20 -9 14 -73 15 -81 1z"/>
<path d="M2338 2191 l-28 -6 25 -11 c19 -9 27 -9 35 1 14 17 2 23 -32 16z"/>
<path d="M2411 2165 c-39 -18 -81 -19 -113 -4 -18 8 -33 6 -63 -7 -22 -10 -49
-18 -59 -19 -10 -1 -25 -10 -32 -19 -8 -11 -14 -13 -19 -7 -4 8 -12 8 -25 1
-10 -5 -27 -10 -38 -10 -30 0 -72 -55 -72 -94 0 -45 13 -52 49 -27 l29 21 23
-25 c52 -56 145 -78 324 -76 53 1 142 29 182 58 36 26 53 29 71 11 9 -9 12 -1
12 35 0 37 -5 53 -24 72 -26 26 -59 27 -64 3 -2 -9 4 -23 13 -31 8 -9 15 -20
15 -26 0 -12 -13 -15 -23 -5 -8 9 -87 11 -87 3 0 -4 9 -9 20 -12 13 -3 20 -14
20 -30 0 -24 -1 -24 -101 -25 -74 -1 -106 2 -123 13 -19 13 -27 13 -47 3 -14
-7 -49 -13 -79 -13 -49 0 -55 2 -58 22 -4 28 20 40 103 52 51 7 43 8 -52 6
-62 -2 -113 0 -113 5 0 18 50 40 110 46 14 2 35 6 48 9 15 4 24 0 28 -9 5 -13
9 -13 29 0 19 12 47 15 139 11 64 -2 116 -1 116 2 0 12 -16 27 -56 54 -46 31
-40 30 -83 12z"/>
<path d="M2450 2029 c0 -5 11 -9 25 -9 14 0 25 2 25 4 0 2 -11 6 -25 8 -14 3
-25 1 -25 -3z"/>
<path d="M2785 1860 c-3 -5 -1 -10 4 -10 6 0 11 5 11 10 0 6 -2 10 -4 10 -3 0
-8 -4 -11 -10z"/>
<path d="M2237 1773 c-13 -12 -7 -20 31 -37 60 -27 172 -8 172 29 0 12 -19 15
-98 15 -54 0 -102 -3 -105 -7z"/>
<path d="M2826 1480 c32 -13 38 -27 36 -89 -1 -49 0 -52 7 -23 5 18 6 42 4 53
-8 31 20 23 41 -11 14 -25 16 -37 7 -62 -6 -17 -11 -49 -11 -72 -1 -23 -7 -58
-14 -78 -8 -21 -12 -38 -9 -38 11 0 53 109 53 139 0 26 3 32 16 27 9 -3 18 -6
20 -6 2 0 4 -9 4 -21 0 -15 5 -19 15 -15 19 7 20 -20 2 -54 -17 -32 -29 -76
-17 -64 4 5 10 18 12 29 2 14 10 19 26 17 45 -7 71 49 37 78 -21 17 -19 26 5
26 14 0 18 -5 15 -17 -3 -10 3 -19 17 -26 l22 -9 -21 -21 c-23 -23 -40 -103
-28 -124 6 -8 12 -4 22 12 12 22 13 20 7 -25 -5 -35 -4 -47 5 -42 6 4 11 17
11 29 0 17 2 19 10 7 18 -29 20 -1 4 59 -20 71 -13 87 20 46 l23 -28 6 33 c10
47 9 72 -3 65 -5 -3 -10 -1 -10 5 0 7 -7 9 -16 6 -12 -4 -15 -2 -10 9 7 18 -5
20 -23 3 -11 -11 -13 -10 -7 5 3 10 6 23 6 28 0 5 7 9 15 9 8 0 15 5 15 10 0
14 -7 13 -34 -5 -22 -15 -24 -14 -29 5 -6 24 -36 38 -47 20 -4 -7 -5 -21 -3
-31 8 -29 -15 -23 -31 9 -8 15 -28 38 -45 52 -17 14 -31 33 -31 43 0 10 -5 15
-10 12 -6 -3 -22 3 -36 14 -15 12 -36 21 -48 20 l-21 0 21 -9z"/>
<path d="M1835 1375 c-15 -37 -16 -52 -6 -87 6 -24 20 -76 30 -116 11 -40 31
-86 45 -105 15 -17 37 -45 51 -62 13 -16 26 -27 30 -23 4 4 0 14 -9 23 -9 9
-16 31 -16 48 0 18 -9 46 -21 62 -11 17 -34 59 -52 95 -26 55 -31 76 -31 138
0 39 -1 72 -2 72 -1 0 -10 -20 -19 -45z"/>
<path d="M2970 1405 c0 -16 25 -37 33 -28 13 13 7 31 -13 36 -12 3 -20 0 -20
-8z"/>
<path d="M1704 1364 c3 -9 6 -18 6 -20 0 -3 5 -2 10 1 16 10 12 35 -6 35 -11
0 -14 -5 -10 -16z"/>
<path d="M1659 1350 c-3 -8 -2 -32 3 -52 4 -21 4 -59 -2 -89 -6 -29 -8 -54 -5
-57 6 -6 9 7 24 83 6 33 14 71 18 84 5 20 3 23 -10 18 -10 -4 -17 0 -19 11 -3
14 -5 14 -9 2z"/>
<path d="M1740 1334 c-6 -14 -10 -30 -10 -36 0 -6 -6 -16 -14 -22 -14 -11 -30
-86 -18 -86 15 1 41 28 34 36 -4 4 1 2 11 -5 9 -8 19 -12 21 -10 2 2 6 30 8
63 4 53 4 56 -9 35 -14 -23 -14 -22 -9 14 6 43 0 48 -14 11z m7 -76 c-3 -8 -6
-5 -6 6 -1 11 2 17 5 13 3 -3 4 -12 1 -19z"/>
<path d="M1548 1278 c-23 -55 -36 -117 -55 -248 -4 -31 -3 -33 9 -20 8 8 23
67 32 130 10 63 25 129 33 146 9 17 14 36 12 43 -2 6 -16 -17 -31 -51z"/>
<path d="M1615 1284 c2 -52 -21 -153 -38 -170 -13 -13 -7 43 8 79 17 41 20 87
6 87 -12 0 -18 -20 -31 -105 -6 -38 -14 -87 -17 -109 l-6 -38 39 25 c21 13 39
28 40 33 0 5 3 16 7 24 24 62 28 182 6 196 -4 2 -6 11 -2 19 3 8 1 15 -4 15
-5 0 -9 -25 -8 -56z"/>
<path d="M3150 1330 c0 -5 5 -10 10 -10 6 0 10 5 10 10 0 6 -4 10 -10 10 -5 0
-10 -4 -10 -10z"/>
<path d="M2841 1289 c-7 -23 -15 -47 -18 -55 -3 -8 -1 -14 4 -14 10 0 38 98
31 106 -3 2 -10 -14 -17 -37z"/>
<path d="M3176 1315 c-3 -9 0 -15 9 -15 8 0 15 -4 15 -10 0 -16 17 -11 24 6 8
20 8 20 -20 28 -15 4 -24 2 -28 -9z"/>
<path d="M2220 1292 c0 -21 3 -22 75 -27 52 -3 72 9 53 32 -6 8 -34 13 -69 13
-51 0 -59 -3 -59 -18z"/>
<path d="M1483 1292 c-20 -13 -53 -115 -73 -227 -10 -61 -26 -124 -34 -140
-25 -47 -19 -52 19 -15 19 19 35 42 35 51 0 10 5 21 10 24 6 3 10 1 10 -5 0
-6 4 -9 9 -6 4 3 11 36 15 73 4 37 9 84 12 103 4 27 3 32 -6 20 -11 -16 -9 1
12 84 10 41 9 49 -9 38z"/>
<path d="M3255 1279 c-8 -23 11 -42 32 -34 7 2 10 -2 6 -11 -10 -26 16 -14 31
14 14 28 14 29 -18 40 -43 16 -44 16 -51 -9z"/>
<path d="M1407 1243 c-7 -39 -1 -40 11 -4 6 17 7 31 3 31 -5 0 -11 -12 -14
-27z"/>
<path d="M3351 1222 c-9 -17 -8 -21 1 -16 8 5 9 2 5 -9 -11 -29 12 -18 28 13
19 37 19 39 -4 37 -11 -1 -25 -12 -30 -25z"/>
<path d="M3203 1228 c-6 -7 -13 -26 -17 -43 -4 -16 -11 -32 -15 -35 -14 -9
-23 -50 -12 -50 6 0 11 10 11 22 0 12 3 18 7 14 5 -4 7 -35 6 -69 -2 -74 9
-44 26 69 6 39 13 78 17 87 7 20 -9 23 -23 5z"/>
<path d="M1325 1199 c-10 -17 -21 -53 -26 -78 l-8 -46 4 55 c7 84 -12 40 -21
-50 -4 -41 -7 -81 -5 -88 1 -7 -4 -11 -11 -10 -15 4 -46 -131 -47 -207 l-1
-49 58 57 c66 65 77 92 102 242 10 61 21 126 24 145 6 28 5 32 -4 17 -6 -10
-16 -14 -23 -10 -8 4 -7 1 1 -9 11 -13 11 -24 1 -57 -7 -22 -16 -38 -21 -35
-7 5 -13 -7 -34 -65 -2 -8 -7 -11 -11 -8 -6 6 19 130 38 191 13 41 4 44 -16 5z
m-68 -276 c-3 -10 -5 -4 -5 12 0 17 2 24 5 18 2 -7 2 -21 0 -30z"/>
<path d="M3405 1204 c-20 -30 -11 -46 10 -18 13 18 20 44 11 44 -2 0 -11 -12
-21 -26z"/>
<path d="M2470 1173 c-21 -22 -22 -24 -4 -15 23 12 51 42 38 41 -5 0 -20 -12
-34 -26z"/>
<path d="M3240 1176 c-17 -33 -19 -102 -2 -98 6 1 12 -7 12 -18 0 -12 10 -40
22 -63 l21 -42 12 47 c7 26 24 67 38 92 34 60 18 59 -22 -1 -38 -58 -41 -37
-5 32 24 46 25 48 5 31 -13 -12 -21 -14 -21 -7 0 20 -21 1 -36 -33 l-15 -31 4
40 c2 22 7 48 11 58 12 26 -9 20 -24 -7z"/>
<path d="M3462 1164 c-7 -14 -8 -23 -2 -19 15 9 32 45 22 45 -5 0 -14 -12 -20
-26z"/>
<path d="M1230 1154 c-6 -14 -10 -64 -10 -112 0 -85 0 -86 16 -57 14 26 36
183 28 194 -2 2 -8 -12 -13 -30 l-11 -34 5 33 c5 38 -2 42 -15 6z"/>
<path d="M3496 1159 c-23 -33 -20 -46 5 -23 22 19 22 19 11 -1 -5 -11 -20 -29
-32 -40 -21 -19 -21 -19 -14 1 6 16 4 16 -19 -5 -32 -29 -44 -61 -27 -71 10
-6 0 -30 -34 -90 -34 -58 -45 -85 -37 -93 7 -7 13 -2 21 18 14 37 117 221 145
260 33 45 40 59 25 50 -7 -4 -16 -2 -20 5 -5 9 -12 5 -24 -11z"/>
<path d="M1176 1149 c-20 -16 -26 -30 -27 -62 l-2 -42 -6 40 -6 39 -12 -26
c-6 -14 -10 -50 -7 -80 2 -29 1 -47 -2 -40 -3 6 -10 10 -15 6 -5 -3 -9 -1 -9
5 0 5 5 13 10 16 6 4 8 15 5 25 -3 9 -6 34 -7 54 -1 34 -3 36 -17 21 -13 -12
-17 -45 -19 -160 -2 -88 -7 -145 -13 -145 -7 0 -9 51 -7 139 2 88 0 133 -6
123 -5 -9 -14 -20 -20 -24 -14 -9 -12 -261 3 -327 18 -86 21 -123 8 -109 -7 7
-13 31 -14 53 -2 22 -7 60 -13 85 -5 25 -14 92 -19 150 l-10 105 4 -135 c3
-74 7 -146 11 -160 4 -20 3 -22 -5 -8 -18 27 -35 260 -24 307 7 24 7 41 2 41
-17 0 -29 -50 -23 -91 7 -39 -10 -58 -19 -21 -2 9 -3 6 -2 -8 1 -14 6 -33 10
-44 6 -14 5 -18 -6 -14 -8 2 -19 24 -25 48 -6 24 -14 39 -17 33 -8 -13 8 -95
24 -125 6 -11 8 -22 6 -25 -8 -7 -36 50 -46 94 l-9 38 -1 -40 c-1 -25 8 -58
24 -87 27 -51 29 -58 17 -58 -15 0 -52 77 -52 109 0 17 -4 31 -10 31 -5 0 -7
-7 -4 -15 4 -8 2 -15 -4 -15 -9 0 -3 -44 15 -105 5 -19 4 -18 -16 3 -25 26
-36 28 -27 6 4 -9 2 -13 -5 -8 -17 10 -29 -17 -18 -39 6 -10 17 -16 24 -13 7
2 16 -2 19 -10 3 -9 11 -12 16 -9 6 4 21 -6 33 -21 l21 -28 7 25 c6 24 6 23
13 -6 4 -16 18 -59 31 -94 31 -83 24 -92 -12 -15 -16 32 -35 60 -43 62 -8 1
-30 19 -48 39 -43 48 -76 54 -90 14 -8 -24 -7 -32 11 -49 23 -24 16 -42 -8
-22 -13 10 -18 11 -28 1 -9 -10 -6 -18 17 -37 15 -14 26 -27 24 -30 -3 -2 -11
2 -18 11 -7 8 -20 15 -29 15 -11 0 -5 -9 17 -28 22 -19 33 -35 31 -48 -5 -29
63 -84 220 -178 11 -7 13 -1 9 28 -2 20 -1 36 3 36 3 0 12 28 18 63 15 75 48
149 89 200 29 36 31 43 27 104 -3 46 0 74 11 95 9 16 17 28 20 26 2 -3 -1 -40
-6 -83 -5 -43 -8 -81 -5 -84 14 -14 46 39 50 82 2 26 7 72 11 103 5 41 4 55
-5 50 -15 -9 -15 217 -1 245 14 24 9 24 -24 -2z m-26 -129 c0 -5 -4 -10 -10
-10 -5 0 -10 5 -10 10 0 6 5 10 10 10 6 0 10 -4 10 -10z m-53 -97 c-3 -10 -5
-2 -5 17 0 19 2 27 5 18 2 -10 2 -26 0 -35z m20 -30 c-2 -16 -4 -5 -4 22 0 28
2 40 4 28 2 -13 2 -35 0 -50z m70 -55 c-3 -7 -5 -2 -5 12 0 14 2 19 5 13 2 -7
2 -19 0 -25z m-67 12 c0 -5 -4 -10 -10 -10 -5 0 -10 5 -10 10 0 6 5 10 10 10
6 0 10 -4 10 -10z m57 -52 c-3 -8 -6 -5 -6 6 -1 11 2 17 5 13 3 -3 4 -12 1
-19z m-254 -83 c4 -39 3 -50 -2 -30 -9 31 -14 102 -7 94 2 -2 6 -31 9 -64z
m164 -37 c-3 -7 -5 -2 -5 12 0 14 2 19 5 13 2 -7 2 -19 0 -25z m-90 -55 c-3
-10 -5 -4 -5 12 0 17 2 24 5 18 2 -7 2 -21 0 -30z m-187 -43 c10 -19 10 -20
-9 -8 -11 6 -17 16 -15 20 8 12 12 10 24 -12z m27 -114 l15 -31 -31 29 c-17
17 -31 36 -31 44 0 21 27 -3 47 -42z m132 -77 c9 -27 9 -30 -4 -19 -8 7 -15
21 -15 31 0 28 7 23 19 -12z"/>
<path d="M1352 1140 c0 -14 2 -19 5 -12 2 6 2 18 0 25 -3 6 -5 1 -5 -13z"/>
<path d="M3542 1098 c-22 -29 -38 -56 -35 -61 2 -4 20 16 39 45 46 67 46 68
40 68 -3 0 -23 -24 -44 -52z"/>
<path d="M3578 1077 c-19 -23 -48 -64 -65 -92 -41 -66 -122 -238 -116 -248 8
-15 59 48 83 103 24 53 98 187 134 242 29 44 1 41 -36 -5z"/>
<path d="M3399 1087 c-9 -12 -32 -52 -53 -89 -27 -49 -36 -74 -30 -90 6 -20 8
-19 19 17 7 22 29 69 49 104 36 63 46 99 15 58z"/>
<path d="M3659 1082 c-43 -46 -89 -109 -89 -121 0 -29 30 -3 73 66 51 80 57
100 16 55z"/>
<path d="M3715 1016 c-38 -46 -125 -193 -125 -211 0 -5 18 15 39 45 42 58 133
210 126 210 -2 0 -20 -20 -40 -44z"/>
<path d="M3612 931 c-26 -41 -102 -197 -102 -207 0 -2 5 -4 10 -4 6 0 10 6 10
14 0 7 27 66 59 130 32 64 58 116 56 116 -2 0 -17 -22 -33 -49z"/>
<path d="M3192 879 c-15 -47 -5 -73 14 -38 14 26 19 79 6 79 -4 0 -13 -18 -20
-41z"/>
<path d="M3297 804 c-21 -75 -21 -84 0 -114 17 -23 17 -23 30 41 9 42 10 71 4
84 -5 11 -11 26 -13 34 -3 8 -12 -12 -21 -45z"/>
<path d="M3229 819 c-16 -16 -18 -23 -8 -35 6 -8 14 -12 17 -9 3 3 11 -7 18
-22 12 -26 12 -25 13 30 1 61 -7 69 -40 36z"/>
<path d="M795 790 c3 -5 8 -10 11 -10 2 0 4 5 4 10 0 6 -5 10 -11 10 -5 0 -7
-4 -4 -10z"/>
<path d="M3341 717 c-16 -42 -17 -77 -3 -77 12 0 31 89 21 96 -5 3 -13 -6 -18
-19z"/>
<path d="M3392 634 c-26 -72 -26 -75 -8 -68 16 6 40 83 34 110 -2 12 -12 -4
-26 -42z"/>
<path d="M1193 300 c3 -11 1 -20 -4 -20 -15 0 -50 -78 -38 -85 5 -4 16 -2 23
4 11 9 14 8 12 -4 0 -10 13 -22 33 -31 l34 -14 -7 41 c-4 22 -13 51 -21 63 -9
13 -13 30 -10 38 4 9 -1 18 -11 22 -13 5 -15 2 -11 -14z"/>
</g>
</svg>
